{
    "asset" : {
        "generator" : "Khronos glTF Blender I/O v1.6.16",
        "version" : "2.0"
    },
    "scene" : 0,
    "scenes" : [
        {
            "name" : "Scene",
            "nodes" : [
                13,
                14
            ]
        }
    ],
    "nodes" : [
        {
            "mesh" : 0,
            "name" : "SuperGirl",
            "rotation" : [
                0.007632926572114229,
                0,
                0,
                0.9999709725379944
            ],
            "translation" : [
                0,
                7.764633655548096,
                2.950594425201416
            ]
        },
        {
            "name" : "Head",
            "rotation" : [
                0.12800605595111847,
                0.056722186505794525,
                -0.004437823314219713,
                0.9901400804519653
            ],
            "scale" : [
                1,
                0.9999999403953552,
                0.9999999403953552
            ],
            "translation" : [
                -1.0083391899229355e-08,
                5.35973596572876,
                -2.5566382078068273e-07
            ]
        },
        {
            "name" : "L-Foot",
            "rotation" : [
                -0.211844339966774,
                -0.014897303655743599,
                -0.4964427947998047,
                0.8416914939880371
            ],
            "scale" : [
                0.999984622001648,
                1.0000011920928955,
                1.000001072883606
            ],
            "translation" : [
                2.2456986698671244e-05,
                4.376357078552246,
                3.0850721941533266e-06
            ]
        },
        {
            "children" : [
                2
            ],
            "name" : "L-Leg2",
            "rotation" : [
                0.031062889844179153,
                -0.0029878851491957903,
                0.2769308388233185,
                0.9603830575942993
            ],
            "scale" : [
                0.9999837279319763,
                1.0000015497207642,
                0.9999998807907104
            ],
            "translation" : [
                -1.618731585040223e-05,
                3.8181891441345215,
                -2.4581038360338425e-06
            ]
        },
        {
            "children" : [
                3
            ],
            "name" : "L-Leg1",
            "rotation" : [
                0.6330462694168091,
                -0.04543337970972061,
                0.7715232372283936,
                0.04404810816049576
            ],
            "scale" : [
                1.0000349283218384,
                1.000000238418579,
                0.9999998807907104
            ],
            "translation" : [
                0.5748891234397888,
                0.18552632629871368,
                1.105620265007019
            ]
        },
        {
            "name" : "R-Foot",
            "rotation" : [
                0.6137970685958862,
                -0.049855176359415054,
                -0.3447386622428894,
                0.7084651589393616
            ],
            "scale" : [
                0.9999998211860657,
                1.0000001192092896,
                0.9999999403953552
            ],
            "translation" : [
                4.3056928689111373e-07,
                3.8284857273101807,
                6.205565341588226e-07
            ]
        },
        {
            "children" : [
                5
            ],
            "name" : "R-Leg-2",
            "rotation" : [
                -0.5824651718139648,
                0.10074321925640106,
                0.5968294143676758,
                0.5425678491592407
            ],
            "scale" : [
                1.000000238418579,
                0.9999999403953552,
                1
            ],
            "translation" : [
                7.113881110853981e-07,
                3.3242709636688232,
                -1.0559057272985228e-07
            ]
        },
        {
            "children" : [
                6
            ],
            "name" : "R-Leg-1",
            "rotation" : [
                0.08151867240667343,
                0.2852100431919098,
                0.7949762940406799,
                0.5291717648506165
            ],
            "translation" : [
                -1.0163336992263794,
                -0.1530943065881729,
                -0.35787954926490784
            ]
        },
        {
            "name" : "L-Arm-2",
            "rotation" : [
                -0.08765921741724014,
                1.1847436098832986e-07,
                0.3631608486175537,
                0.9275937080383301
            ],
            "scale" : [
                1.0000001192092896,
                1,
                0.9999999403953552
            ],
            "translation" : [
                3.5079136750937323e-07,
                1.6378916501998901,
                -1.6093875387923617e-07
            ]
        },
        {
            "children" : [
                8
            ],
            "name" : "L-Arm-1",
            "rotation" : [
                0.4364151060581207,
                -0.07420948892831802,
                -0.4902458190917969,
                0.7507954835891724
            ],
            "scale" : [
                0.9999999403953552,
                1,
                1
            ],
            "translation" : [
                1.2049121856689453,
                4.884190082550049,
                1.4848130941390991
            ]
        },
        {
            "name" : "R-Arm-2",
            "rotation" : [
                -0.3471241891384125,
                0.1541300266981125,
                0.681358277797699,
                0.6256993412971497
            ],
            "scale" : [
                0.9999998211860657,
                0.9999998211860657,
                0.9999998807907104
            ],
            "translation" : [
                1.5711098910742294e-07,
                3.0484509468078613,
                1.1557825985164527e-07
            ]
        },
        {
            "children" : [
                10
            ],
            "name" : "R-Arm-1",
            "rotation" : [
                -0.932740330696106,
                0.15942318737506866,
                0.2346598356962204,
                0.22251874208450317
            ],
            "scale" : [
                1.000000238418579,
                1.0000001192092896,
                1.000000238418579
            ],
            "translation" : [
                -0.7397013306617737,
                4.911921501159668,
                -0.7724630832672119
            ]
        },
        {
            "children" : [
                1,
                4,
                7,
                9,
                11
            ],
            "name" : "Body",
            "rotation" : [
                -0.01715034991502762,
                0.0001478984922869131,
                0.000629967893473804,
                0.99985271692276
            ],
            "scale" : [
                1,
                1.0000001192092896,
                1
            ]
        },
        {
            "children" : [
                0,
                12
            ],
            "name" : "Armature"
        },
        {
            "mesh" : 1,
            "name" : "Hair",
            "rotation" : [
                0.007632926572114229,
                0,
                0,
                0.9999709725379944
            ],
            "translation" : [
                0,
                7.764633655548096,
                2.950594425201416
            ]
        }
    ],
    "materials" : [
        {
            "doubleSided" : true,
            "name" : "Orange",
            "pbrMetallicRoughness" : {
                "baseColorFactor" : [
                    0.7742720246315002,
                    0.2737663686275482,
                    0.026157209649682045,
                    1
                ],
                "roughnessFactor" : 0.2361111044883728
            }
        },
        {
            "doubleSided" : true,
            "name" : "skin.004",
            "pbrMetallicRoughness" : {
                "baseColorFactor" : [
                    0.4338742196559906,
                    0.2796347737312317,
                    0.1995491236448288,
                    1
                ],
                "metallicFactor" : 0,
                "roughnessFactor" : 0.7954545021057129
            }
        },
        {
            "doubleSided" : true,
            "name" : "Red",
            "pbrMetallicRoughness" : {
                "baseColorFactor" : [
                    0.33716365694999695,
                    0.02624122053384781,
                    0.008023192174732685,
                    1
                ],
                "metallicFactor" : 0,
                "roughnessFactor" : 0.6944444179534912
            }
        },
        {
            "doubleSided" : true,
            "name" : "eyes",
            "pbrMetallicRoughness" : {
                "baseColorFactor" : [
                    0,
                    0,
                    0,
                    1
                ],
                "metallicFactor" : 0,
                "roughnessFactor" : 0
            }
        },
        {
            "doubleSided" : true,
            "name" : "legs_4",
            "pbrMetallicRoughness" : {
                "baseColorFactor" : [
                    0.023067453876137733,
                    0.13867059350013733,
                    0.4019780457019806,
                    1
                ],
                "metallicFactor" : 0,
                "roughnessFactor" : 0.5496453642845154
            }
        },
        {
            "doubleSided" : true,
            "name" : "Blue",
            "pbrMetallicRoughness" : {
                "baseColorFactor" : [
                    0,
                    0.15896087884902954,
                    0.47353148460388184,
                    1
                ],
                "metallicFactor" : 0,
                "roughnessFactor" : 0.6805555820465088
            }
        },
        {
            "doubleSided" : true,
            "name" : "Hair15",
            "pbrMetallicRoughness" : {
                "baseColorFactor" : [
                    0.049549028277397156,
                    0.016962291672825813,
                    0.0036378256045281887,
                    1
                ],
                "metallicFactor" : 0,
                "roughnessFactor" : 0.7222219705581665
            }
        }
    ],
    "meshes" : [
        {
            "name" : "Mesh",
            "primitives" : [
                {
                    "attributes" : {
                        "POSITION" : 0,
                        "NORMAL" : 1,
                        "TEXCOORD_0" : 2
                    },
                    "indices" : 3,
                    "material" : 0
                },
                {
                    "attributes" : {
                        "POSITION" : 4,
                        "NORMAL" : 5,
                        "TEXCOORD_0" : 6
                    },
                    "indices" : 7,
                    "material" : 1
                },
                {
                    "attributes" : {
                        "POSITION" : 8,
                        "NORMAL" : 9,
                        "TEXCOORD_0" : 10
                    },
                    "indices" : 11,
                    "material" : 2
                },
                {
                    "attributes" : {
                        "POSITION" : 12,
                        "NORMAL" : 13,
                        "TEXCOORD_0" : 14
                    },
                    "indices" : 15,
                    "material" : 3
                },
                {
                    "attributes" : {
                        "POSITION" : 16,
                        "NORMAL" : 17,
                        "TEXCOORD_0" : 18
                    },
                    "indices" : 19,
                    "material" : 4
                },
                {
                    "attributes" : {
                        "POSITION" : 20,
                        "NORMAL" : 21,
                        "TEXCOORD_0" : 22
                    },
                    "indices" : 23,
                    "material" : 5
                }
            ]
        },
        {
            "name" : "Mesh.005",
            "primitives" : [
                {
                    "attributes" : {
                        "POSITION" : 24,
                        "NORMAL" : 25,
                        "TEXCOORD_0" : 26
                    },
                    "indices" : 27,
                    "material" : 6
                }
            ]
        }
    ],
    "accessors" : [
        {
            "bufferView" : 0,
            "componentType" : 5126,
            "count" : 1468,
            "max" : [
                0.4705888628959656,
                -7.1953253746032715,
                -0.8614346981048584
            ],
            "min" : [
                -1.9392344951629639,
                -7.951500415802002,
                -3.4996256828308105
            ],
            "type" : "VEC3"
        },
        {
            "bufferView" : 1,
            "componentType" : 5126,
            "count" : 1468,
            "type" : "VEC3"
        },
        {
            "bufferView" : 2,
            "componentType" : 5126,
            "count" : 1468,
            "type" : "VEC2"
        },
        {
            "bufferView" : 3,
            "componentType" : 5123,
            "count" : 7008,
            "type" : "SCALAR"
        },
        {
            "bufferView" : 4,
            "componentType" : 5126,
            "count" : 13057,
            "max" : [
                3.6107025146484375,
                3.204846143722534,
                2.4008984565734863
            ],
            "min" : [
                -4.739462852478027,
                -5.759805202484131,
                -4.997706413269043
            ],
            "type" : "VEC3"
        },
        {
            "bufferView" : 5,
            "componentType" : 5126,
            "count" : 13057,
            "type" : "VEC3"
        },
        {
            "bufferView" : 6,
            "componentType" : 5126,
            "count" : 13057,
            "type" : "VEC2"
        },
        {
            "bufferView" : 7,
            "componentType" : 5123,
            "count" : 52005,
            "type" : "SCALAR"
        },
        {
            "bufferView" : 8,
            "componentType" : 5126,
            "count" : 6177,
            "max" : [
                2.1692254543304443,
                1.9913541078567505,
                0.06478572636842728
            ],
            "min" : [
                -4.231302738189697,
                -16.905370712280273,
                -4.50466775894165
            ],
            "type" : "VEC3"
        },
        {
            "bufferView" : 9,
            "componentType" : 5126,
            "count" : 6177,
            "type" : "VEC3"
        },
        {
            "bufferView" : 10,
            "componentType" : 5126,
            "count" : 6177,
            "type" : "VEC2"
        },
        {
            "bufferView" : 11,
            "componentType" : 5123,
            "count" : 24906,
            "type" : "SCALAR"
        },
        {
            "bufferView" : 12,
            "componentType" : 5126,
            "count" : 128,
            "max" : [
                1.1765758991241455,
                0.7813717126846313,
                -0.03292915225028992
            ],
            "min" : [
                -1.1570650339126587,
                0.17711301147937775,
                -0.4197574853897095
            ],
            "type" : "VEC3"
        },
        {
            "bufferView" : 13,
            "componentType" : 5126,
            "count" : 128,
            "type" : "VEC3"
        },
        {
            "bufferView" : 14,
            "componentType" : 5126,
            "count" : 128,
            "type" : "VEC2"
        },
        {
            "bufferView" : 15,
            "componentType" : 5123,
            "count" : 528,
            "type" : "SCALAR"
        },
        {
            "bufferView" : 16,
            "componentType" : 5126,
            "count" : 1184,
            "max" : [
                1.3742398023605347,
                -6.594038009643555,
                -0.670306921005249
            ],
            "min" : [
                -4.362876892089844,
                -12.746291160583496,
                -4.279667854309082
            ],
            "type" : "VEC3"
        },
        {
            "bufferView" : 17,
            "componentType" : 5126,
            "count" : 1184,
            "type" : "VEC3"
        },
        {
            "bufferView" : 18,
            "componentType" : 5126,
            "count" : 1184,
            "type" : "VEC2"
        },
        {
            "bufferView" : 19,
            "componentType" : 5123,
            "count" : 4359,
            "type" : "SCALAR"
        },
        {
            "bufferView" : 20,
            "componentType" : 5126,
            "count" : 7937,
            "max" : [
                3.2302544116973877,
                -1.3293395042419434,
                0.624395489692688
            ],
            "min" : [
                -2.7943215370178223,
                -7.2761149406433105,
                -5.146981239318848
            ],
            "type" : "VEC3"
        },
        {
            "bufferView" : 21,
            "componentType" : 5126,
            "count" : 7937,
            "type" : "VEC3"
        },
        {
            "bufferView" : 22,
            "componentType" : 5126,
            "count" : 7937,
            "type" : "VEC2"
        },
        {
            "bufferView" : 23,
            "componentType" : 5123,
            "count" : 33813,
            "type" : "SCALAR"
        },
        {
            "bufferView" : 24,
            "componentType" : 5126,
            "count" : 10746,
            "max" : [
                2.459807872772217,
                4.030251979827881,
                0.49711665511131287
            ],
            "min" : [
                -2.7936697006225586,
                -7.657590389251709,
                -5.801002025604248
            ],
            "type" : "VEC3"
        },
        {
            "bufferView" : 25,
            "componentType" : 5126,
            "count" : 10746,
            "type" : "VEC3"
        },
        {
            "bufferView" : 26,
            "componentType" : 5126,
            "count" : 10746,
            "type" : "VEC2"
        },
        {
            "bufferView" : 27,
            "componentType" : 5123,
            "count" : 63087,
            "type" : "SCALAR"
        }
    ],
    "bufferViews" : [
        {
            "buffer" : 0,
            "byteLength" : 17616,
            "byteOffset" : 0
        },
        {
            "buffer" : 0,
            "byteLength" : 17616,
            "byteOffset" : 17616
        },
        {
            "buffer" : 0,
            "byteLength" : 11744,
            "byteOffset" : 35232
        },
        {
            "buffer" : 0,
            "byteLength" : 14016,
            "byteOffset" : 46976
        },
        {
            "buffer" : 0,
            "byteLength" : 156684,
            "byteOffset" : 60992
        },
        {
            "buffer" : 0,
            "byteLength" : 156684,
            "byteOffset" : 217676
        },
        {
            "buffer" : 0,
            "byteLength" : 104456,
            "byteOffset" : 374360
        },
        {
            "buffer" : 0,
            "byteLength" : 104010,
            "byteOffset" : 478816
        },
        {
            "buffer" : 0,
            "byteLength" : 74124,
            "byteOffset" : 582828
        },
        {
            "buffer" : 0,
            "byteLength" : 74124,
            "byteOffset" : 656952
        },
        {
            "buffer" : 0,
            "byteLength" : 49416,
            "byteOffset" : 731076
        },
        {
            "buffer" : 0,
            "byteLength" : 49812,
            "byteOffset" : 780492
        },
        {
            "buffer" : 0,
            "byteLength" : 1536,
            "byteOffset" : 830304
        },
        {
            "buffer" : 0,
            "byteLength" : 1536,
            "byteOffset" : 831840
        },
        {
            "buffer" : 0,
            "byteLength" : 1024,
            "byteOffset" : 833376
        },
        {
            "buffer" : 0,
            "byteLength" : 1056,
            "byteOffset" : 834400
        },
        {
            "buffer" : 0,
            "byteLength" : 14208,
            "byteOffset" : 835456
        },
        {
            "buffer" : 0,
            "byteLength" : 14208,
            "byteOffset" : 849664
        },
        {
            "buffer" : 0,
            "byteLength" : 9472,
            "byteOffset" : 863872
        },
        {
            "buffer" : 0,
            "byteLength" : 8718,
            "byteOffset" : 873344
        },
        {
            "buffer" : 0,
            "byteLength" : 95244,
            "byteOffset" : 882064
        },
        {
            "buffer" : 0,
            "byteLength" : 95244,
            "byteOffset" : 977308
        },
        {
            "buffer" : 0,
            "byteLength" : 63496,
            "byteOffset" : 1072552
        },
        {
            "buffer" : 0,
            "byteLength" : 67626,
            "byteOffset" : 1136048
        },
        {
            "buffer" : 0,
            "byteLength" : 128952,
            "byteOffset" : 1203676
        },
        {
            "buffer" : 0,
            "byteLength" : 128952,
            "byteOffset" : 1332628
        },
        {
            "buffer" : 0,
            "byteLength" : 85968,
            "byteOffset" : 1461580
        },
        {
            "buffer" : 0,
            "byteLength" : 126174,
            "byteOffset" : 1547548
        }
    ],
    "buffers" : [
        {
            "byteLength" : 1673724,
            "uri" : "data:application/octet-stream;base64,"
        }
    ]
}
