{
    "asset" : {
        "generator" : "Khronos glTF Blender I/O v1.6.16",
        "version" : "2.0"
    },
    "scene" : 0,
    "scenes" : [
        {
            "name" : "Scene",
            "nodes" : [
                0
            ]
        }
    ],
    "nodes" : [
        {
            "mesh" : 0,
            "name" : "text"
        }
    ],
    "materials" : [
        {
            "doubleSided" : true,
            "name" : "white",
            "pbrMetallicRoughness" : {
                "baseColorFactor" : [
                    0.800000011920929,
                    0.800000011920929,
                    0.800000011920929,
                    1
                ],
                "metallicFactor" : 0,
                "roughnessFactor" : 0.5
            }
        },
        {
            "doubleSided" : true,
            "name" : "grey",
            "pbrMetallicRoughness" : {
                "baseColorFactor" : [
                    0.21713602542877197,
                    0.21713602542877197,
                    0.21713602542877197,
                    1
                ],
                "roughnessFactor" : 0
            }
        }
    ],
    "meshes" : [
        {
            "name" : "Curve.001",
            "primitives" : [
                {
                    "attributes" : {
                        "POSITION" : 0,
                        "NORMAL" : 1,
                        "TEXCOORD_0" : 2
                    },
                    "indices" : 3,
                    "material" : 0
                },
                {
                    "attributes" : {
                        "POSITION" : 4,
                        "NORMAL" : 5,
                        "TEXCOORD_0" : 6
                    },
                    "indices" : 7,
                    "material" : 1
                }
            ]
        }
    ],
    "accessors" : [
        {
            "bufferView" : 0,
            "componentType" : 5126,
            "count" : 1554,
            "max" : [
                0.04141070321202278,
                0.0020000010263174772,
                0.029063228517770767
            ],
            "min" : [
                -0.040070123970508575,
                0.0020000007934868336,
                -0.03041687421500683
            ],
            "type" : "VEC3"
        },
        {
            "bufferView" : 1,
            "componentType" : 5126,
            "count" : 1554,
            "type" : "VEC3"
        },
        {
            "bufferView" : 2,
            "componentType" : 5126,
            "count" : 1554,
            "type" : "VEC2"
        },
        {
            "bufferView" : 3,
            "componentType" : 5123,
            "count" : 1935,
            "type" : "SCALAR"
        },
        {
            "bufferView" : 4,
            "componentType" : 5126,
            "count" : 1900,
            "max" : [
                0.041439641267061234,
                0.002002023858949542,
                0.029063228517770767
            ],
            "min" : [
                -0.040070123970508575,
                -0.002001525368541479,
                -0.030528554692864418
            ],
            "type" : "VEC3"
        },
        {
            "bufferView" : 5,
            "componentType" : 5126,
            "count" : 1900,
            "type" : "VEC3"
        },
        {
            "bufferView" : 6,
            "componentType" : 5126,
            "count" : 1900,
            "type" : "VEC2"
        },
        {
            "bufferView" : 7,
            "componentType" : 5123,
            "count" : 3309,
            "type" : "SCALAR"
        }
    ],
    "bufferViews" : [
        {
            "buffer" : 0,
            "byteLength" : 18648,
            "byteOffset" : 0
        },
        {
            "buffer" : 0,
            "byteLength" : 18648,
            "byteOffset" : 18648
        },
        {
            "buffer" : 0,
            "byteLength" : 12432,
            "byteOffset" : 37296
        },
        {
            "buffer" : 0,
            "byteLength" : 3870,
            "byteOffset" : 49728
        },
        {
            "buffer" : 0,
            "byteLength" : 22800,
            "byteOffset" : 53600
        },
        {
            "buffer" : 0,
            "byteLength" : 22800,
            "byteOffset" : 76400
        },
        {
            "buffer" : 0,
            "byteLength" : 15200,
            "byteOffset" : 99200
        },
        {
            "buffer" : 0,
            "byteLength" : 6618,
            "byteOffset" : 114400
        }
    ],
    "buffers" : [
        {
            "byteLength" : 121020,
            "uri" : "data:application/octet-stream;base64,"
        }
    ]
}
