{
    "asset" : {
        "generator" : "Khronos glTF Blender I/O v1.6.16",
        "version" : "2.0"
    },
    "scene" : 0,
    "scenes" : [
        {
            "name" : "Scene",
            "nodes" : [
                0
            ]
        }
    ],
    "nodes" : [
        {
            "mesh" : 0,
            "name" : "text.001"
        }
    ],
    "materials" : [
        {
            "doubleSided" : true,
            "name" : "white",
            "pbrMetallicRoughness" : {
                "baseColorFactor" : [
                    0.800000011920929,
                    0.800000011920929,
                    0.800000011920929,
                    1
                ],
                "metallicFactor" : 0,
                "roughnessFactor" : 0.5
            }
        },
        {
            "doubleSided" : true,
            "name" : "grey",
            "pbrMetallicRoughness" : {
                "baseColorFactor" : [
                    0.21713602542877197,
                    0.21713602542877197,
                    0.21713602542877197,
                    1
                ],
                "roughnessFactor" : 0
            }
        }
    ],
    "meshes" : [
        {
            "name" : "text",
            "primitives" : [
                {
                    "attributes" : {
                        "POSITION" : 0,
                        "NORMAL" : 1,
                        "TEXCOORD_0" : 2
                    },
                    "indices" : 3,
                    "material" : 0
                },
                {
                    "attributes" : {
                        "POSITION" : 4,
                        "NORMAL" : 5,
                        "TEXCOORD_0" : 6
                    },
                    "indices" : 7,
                    "material" : 1
                }
            ]
        }
    ],
    "accessors" : [
        {
            "bufferView" : 0,
            "componentType" : 5126,
            "count" : 889,
            "max" : [
                0.0419016107916832,
                0.0020010920707136393,
                0.015910953283309937
            ],
            "min" : [
                -0.04114552214741707,
                0.0019927741959691048,
                -0.01709485426545143
            ],
            "type" : "VEC3"
        },
        {
            "bufferView" : 1,
            "componentType" : 5126,
            "count" : 889,
            "type" : "VEC3"
        },
        {
            "bufferView" : 2,
            "componentType" : 5126,
            "count" : 889,
            "type" : "VEC2"
        },
        {
            "bufferView" : 3,
            "componentType" : 5123,
            "count" : 924,
            "type" : "SCALAR"
        },
        {
            "bufferView" : 4,
            "componentType" : 5126,
            "count" : 2253,
            "max" : [
                0.04197787120938301,
                0.00200000056065619,
                0.015910733491182327
            ],
            "min" : [
                -0.04114662855863571,
                -0.001999999862164259,
                -0.017128651961684227
            ],
            "type" : "VEC3"
        },
        {
            "bufferView" : 5,
            "componentType" : 5126,
            "count" : 2253,
            "type" : "VEC3"
        },
        {
            "bufferView" : 6,
            "componentType" : 5126,
            "count" : 2253,
            "type" : "VEC2"
        },
        {
            "bufferView" : 7,
            "componentType" : 5123,
            "count" : 3867,
            "type" : "SCALAR"
        }
    ],
    "bufferViews" : [
        {
            "buffer" : 0,
            "byteLength" : 10668,
            "byteOffset" : 0
        },
        {
            "buffer" : 0,
            "byteLength" : 10668,
            "byteOffset" : 10668
        },
        {
            "buffer" : 0,
            "byteLength" : 7112,
            "byteOffset" : 21336
        },
        {
            "buffer" : 0,
            "byteLength" : 1848,
            "byteOffset" : 28448
        },
        {
            "buffer" : 0,
            "byteLength" : 27036,
            "byteOffset" : 30296
        },
        {
            "buffer" : 0,
            "byteLength" : 27036,
            "byteOffset" : 57332
        },
        {
            "buffer" : 0,
            "byteLength" : 18024,
            "byteOffset" : 84368
        },
        {
            "buffer" : 0,
            "byteLength" : 7734,
            "byteOffset" : 102392
        }
    ],
    "buffers" : [
        {
            "byteLength" : 110128,
            "uri" : "data:application/octet-stream;base64,"
        }
    ]
}
