{
    "asset" : {
        "generator" : "Khronos glTF Blender I/O v1.6.16",
        "version" : "2.0"
    },
    "scene" : 0,
    "scenes" : [
        {
            "name" : "Scene",
            "nodes" : [
                0
            ]
        }
    ],
    "nodes" : [
        {
            "mesh" : 0,
            "name" : "Curve.015"
        }
    ],
    "materials" : [
        {
            "doubleSided" : true,
            "name" : "grey",
            "pbrMetallicRoughness" : {
                "baseColorFactor" : [
                    0.21713602542877197,
                    0.21713602542877197,
                    0.21713602542877197,
                    1
                ],
                "roughnessFactor" : 0
            }
        },
        {
            "doubleSided" : true,
            "name" : "white",
            "pbrMetallicRoughness" : {
                "baseColorFactor" : [
                    0.800000011920929,
                    0.800000011920929,
                    0.800000011920929,
                    1
                ],
                "metallicFactor" : 0,
                "roughnessFactor" : 0.5
            }
        }
    ],
    "meshes" : [
        {
            "name" : "Curve.032",
            "primitives" : [
                {
                    "attributes" : {
                        "POSITION" : 0,
                        "NORMAL" : 1,
                        "TEXCOORD_0" : 2
                    },
                    "indices" : 3,
                    "material" : 0
                },
                {
                    "attributes" : {
                        "POSITION" : 4,
                        "NORMAL" : 5,
                        "TEXCOORD_0" : 6
                    },
                    "indices" : 7,
                    "material" : 1
                }
            ]
        }
    ],
    "accessors" : [
        {
            "bufferView" : 0,
            "componentType" : 5126,
            "count" : 2267,
            "max" : [
                0.04357287287712097,
                0.0020000007934868336,
                0.019739219918847084
            ],
            "min" : [
                -0.043015699833631516,
                -0.0019999993965029716,
                -0.029665125533938408
            ],
            "type" : "VEC3"
        },
        {
            "bufferView" : 1,
            "componentType" : 5126,
            "count" : 2267,
            "type" : "VEC3"
        },
        {
            "bufferView" : 2,
            "componentType" : 5126,
            "count" : 2267,
            "type" : "VEC2"
        },
        {
            "bufferView" : 3,
            "componentType" : 5123,
            "count" : 4014,
            "type" : "SCALAR"
        },
        {
            "bufferView" : 4,
            "componentType" : 5126,
            "count" : 1539,
            "max" : [
                0.04357287287712097,
                0.0020000007934868336,
                0.019739219918847084
            ],
            "min" : [
                -0.043015699833631516,
                0.0020000007934868336,
                -0.029665125533938408
            ],
            "type" : "VEC3"
        },
        {
            "bufferView" : 5,
            "componentType" : 5126,
            "count" : 1539,
            "type" : "VEC3"
        },
        {
            "bufferView" : 6,
            "componentType" : 5126,
            "count" : 1539,
            "type" : "VEC2"
        },
        {
            "bufferView" : 7,
            "componentType" : 5123,
            "count" : 1938,
            "type" : "SCALAR"
        }
    ],
    "bufferViews" : [
        {
            "buffer" : 0,
            "byteLength" : 27204,
            "byteOffset" : 0
        },
        {
            "buffer" : 0,
            "byteLength" : 27204,
            "byteOffset" : 27204
        },
        {
            "buffer" : 0,
            "byteLength" : 18136,
            "byteOffset" : 54408
        },
        {
            "buffer" : 0,
            "byteLength" : 8028,
            "byteOffset" : 72544
        },
        {
            "buffer" : 0,
            "byteLength" : 18468,
            "byteOffset" : 80572
        },
        {
            "buffer" : 0,
            "byteLength" : 18468,
            "byteOffset" : 99040
        },
        {
            "buffer" : 0,
            "byteLength" : 12312,
            "byteOffset" : 117508
        },
        {
            "buffer" : 0,
            "byteLength" : 3876,
            "byteOffset" : 129820
        }
    ],
    "buffers" : [
        {
            "byteLength" : 133696,
            "uri" : "data:application/octet-stream;base64,"
        }
    ]
}
