<?xml version="1.0" encoding="utf-8"?>
<!-- Generator: Adobe Illustrator 25.2.3, SVG Export Plug-In . SVG Version: 6.00 Build 0)  -->
<svg version="1.1" id="Layer_1" xmlns="http://www.w3.org/2000/svg" xmlns:xlink="http://www.w3.org/1999/xlink" x="0px" y="0px"
	 viewBox="0 0 441.8 160.1" style="enable-background:new 0 0 441.8 160.1;" xml:space="preserve">
<style type="text/css">
	.st0{fill:#FFFFFF;}
</style>
<g>
	<path class="st0" d="M22.2,130.9l-7.3,27.7L0,160.1L34.2,38.7l18.8-1.9l-4.5,118.5l-14.9,1.5l1.4-27.1L22.2,130.9z M36.1,117.8
		l3.6-52.6l-1,0.1l-13.5,53.6L36.1,117.8z"/>
	<path class="st0" d="M105.7,149.7l3.5-76.2l-1,0.1l-21.4,78L72,153l4.5-118.5l14.9-1.5l-4.9,78.1l1-0.1l20.8-79.6l14.9-1.5
		l-4.9,78.1l1-0.1l20.8-79.6l14.9-1.5l-34.2,121.4L105.7,149.7z"/>
	<path class="st0" d="M182.4,35.9l-6.7,42l17.8-1.8l-2,12l-17.8,1.8l-6.9,42l23.8-2.3l-1.8,12l-37.6,3.7l19.4-120l37.6-3.7l-2,12
		L182.4,35.9z"/>
	<path class="st0" d="M228.4,38.4c-0.9,5.5-1,10.4-0.3,14.7c0.7,4.3,1.8,8.5,3.3,12.4c1.5,3.9,3.1,7.7,5.1,11.3
		c1.9,3.6,3.6,7.5,5.2,11.5c1.5,4.1,2.6,8.4,3.3,13.2c0.7,4.7,0.5,10.1-0.6,16.1c-1.1,5.8-3.9,10.6-8.5,14.4
		c-4.6,3.8-10.2,6-16.6,6.6c-6.5,0.6-11.4-0.6-14.9-3.6c-3.4-3-4.6-7.5-3.6-13.3l3.8-23.2l13.9-1.4l-3.8,22.9
		c-0.5,2.5-0.2,4.3,1,5.4c1.2,1.1,3,1.5,5.5,1.2c5.3-0.5,8.4-3.2,9.3-8.2c0.9-5.5,1-10.4,0.3-14.7c-0.7-4.3-1.9-8.5-3.4-12.3
		c-1.5-3.9-3.2-7.6-5.2-11.3c-1.9-3.6-3.6-7.5-5.1-11.5c-1.5-4.1-2.5-8.4-3.2-13.2c-0.7-4.7-0.5-10.1,0.6-16.1
		c1.1-5.8,3.9-10.6,8.4-14.4c4.6-3.8,10.1-6,16.5-6.6c6.5-0.6,11.5,0.6,15,3.6c3.5,3,4.7,7.5,3.7,13.3L255,53.4l-13.9,1.4l3.2-18
		c0.8-4.9-1.5-7.1-6.7-6.6C232.2,30.8,229.2,33.5,228.4,38.4z"/>
	<path class="st0" d="M292.7,13.2l-19.4,120l-13.9,1.4l19.4-120L292.7,13.2z"/>
	<path class="st0" d="M324.6,106.2l-1.8-55.5l-1,0.1l-15.6,79.1l-13.9,1.4l25.3-120.5L335.5,9l0.2,64.1l1-0.1l21.6-66.2l17.8-1.8
		l-13.4,119.4l-13.9,1.4l9.7-78.5l-1,0.1l-20,57.6L324.6,106.2z"/>
	<path class="st0" d="M422.8,0.2c6.5-0.6,11.5,0.5,15,3.6c3.5,3,4.7,7.4,3.7,13.3l-13.8,82.5c-1.1,5.8-3.9,10.7-8.5,14.5
		c-4.6,3.8-10.2,6-16.6,6.7c-6.5,0.6-11.4-0.5-14.9-3.6s-4.6-7.4-3.6-13.3l13.8-82.5c1.1-5.8,3.9-10.7,8.4-14.5
		C410.8,3,416.3,0.8,422.8,0.2z M404.4,108.6c5.3-0.5,8.4-3.2,9.3-8.1l13.8-81.7c0.8-4.9-1.5-7.1-6.7-6.6c-5.3,0.5-8.3,3.2-9.1,8.1
		L397.8,102c-0.5,2.5-0.2,4.3,1,5.4C400,108.4,401.9,108.8,404.4,108.6z"/>
</g>
</svg>
