<?xml version="1.0" encoding="UTF-8"?>
<!-- Generator: Adobe Illustrator 26.0.3, SVG Export Plug-In . SVG Version: 6.00 Build 0)  -->
<svg version="1.1" id="Layer_1" xmlns="http://www.w3.org/2000/svg" xmlns:xlink="http://www.w3.org/1999/xlink" x="0px" y="0px" viewBox="0 0 283.5 276.7" style="enable-background:new 0 0 283.5 276.7;" xml:space="preserve">
<g>
	<path d="M126.6,3.8l-5.7,70.3l-21.8,1.1v-70L126.6,3.8z"/>
	<path d="M188.7,49.1c0,4.7-0.8,8.8-2.5,12.4c-1.6,3.5-3.9,6.5-6.7,8.8c-2.8,2.3-6.2,4.1-10,5.3s-7.9,1.8-12.3,1.8   c-1.7,0-3.5-0.2-5.6-0.7c-2-0.4-4.1-1-6.1-1.7c-2.1-0.7-4.1-1.4-6-2.2c-1.9-0.8-3.6-1.5-5.1-2.2l2.3-21.3c2.9,1.8,6.2,3.1,9.7,4   c3.6,0.9,7.1,1.4,10.5,1.4c0.7,0,1.4,0,2.4-0.1c0.9-0.1,1.8-0.2,2.7-0.5c0.8-0.3,1.6-0.6,2.1-1.2c0.6-0.5,0.9-1.3,0.9-2.2   c0-0.7-0.2-1.2-0.6-1.7c-0.4-0.5-0.9-0.8-1.6-1.1c-0.7-0.3-1.4-0.5-2.2-0.7c-0.8-0.2-1.6-0.3-2.4-0.3c-0.8-0.1-1.5-0.1-2.2-0.1   c-0.7,0-1.2,0-1.7,0c-3,0-5.7-0.5-8.1-1.5s-4.5-2.5-6.2-4.3c-1.7-1.8-3.1-4-4.1-6.6c-1-2.5-1.4-5.3-1.4-8.2c0-4.1,0.8-7.7,2.5-10.9   c1.6-3.2,3.8-6,6.6-8.2c2.7-2.3,5.9-4,9.4-5.2c3.5-1.2,7.2-1.8,11-1.8c1.7,0,3.4,0.1,5.2,0.2c1.8,0.1,3.6,0.3,5.3,0.6   c1.8,0.3,3.5,0.7,5.2,1.2c1.7,0.5,3.3,1.1,4.8,1.8l-2,21c-2.3-0.8-4.8-1.5-7.4-2c-2.6-0.5-5.1-0.8-7.5-0.8c-0.4,0-1,0-1.7,0   c-0.7,0-1.4,0.1-2.2,0.2c-0.8,0.1-1.6,0.2-2.3,0.4c-0.8,0.2-1.5,0.4-2.1,0.7c-0.6,0.3-1.1,0.7-1.5,1.2c-0.4,0.5-0.6,1.1-0.5,1.7   c0,0.8,0.3,1.4,0.9,1.8c0.5,0.5,1.2,0.8,2.1,1.1c0.8,0.3,1.8,0.4,2.8,0.5c1,0.1,2,0.2,3,0.2c1,0,1.9,0,2.8,0c0.9,0,1.6,0,2.1,0.1   c2.8,0.2,5.2,0.8,7.4,1.8c2.2,1,4.1,2.3,5.6,4c1.5,1.7,2.7,3.6,3.5,5.9C188.3,43.8,188.7,46.3,188.7,49.1z"/>
	<path d="M78.3,89.3l-0.6,25.2L60,115.2l-4.5,56.4l-25.1,1.3l0.1-56.4l-17.7,1l0.7-28.1L78.3,89.3z"/>
	<path d="M158.6,174.3l-29.7,1.4l-0.2-27.5H115l-0.8,26H87.5l2.3-83.6L118,92l-1.8,42.7h13.2l0.1-45.9l27.1,0.7L158.6,174.3z"/>
	<path d="M202.8,90.6l-6.5,81l-25.1,1.3V92.2L202.8,90.6z"/>
	<path d="M272.2,139.6c0,5.3-0.9,9.9-2.7,13.8s-4.3,7.2-7.5,9.8c-3.2,2.6-6.9,4.6-11.1,5.9c-4.2,1.3-8.8,2-13.7,2   c-1.9,0-3.9-0.2-6.2-0.7c-2.2-0.5-4.5-1.1-6.8-1.9c-2.3-0.8-4.5-1.6-6.7-2.4c-2.1-0.9-4-1.7-5.7-2.4l2.5-23.7   c3.3,2,6.9,3.4,10.9,4.5c4,1,7.9,1.5,11.7,1.5c0.7,0,1.6,0,2.7-0.1s2-0.2,3-0.5c0.9-0.3,1.7-0.7,2.4-1.3c0.7-0.6,1-1.4,1-2.5   c0-0.7-0.2-1.4-0.7-1.9s-1.1-0.9-1.8-1.3c-0.7-0.3-1.6-0.6-2.5-0.7s-1.8-0.3-2.7-0.4c-0.9-0.1-1.7-0.1-2.5-0.1c-0.8,0-1.4,0-1.8,0   c-3.3,0-6.3-0.6-9-1.7c-2.7-1.2-5-2.8-7-4.8c-1.9-2.1-3.4-4.5-4.5-7.3c-1.1-2.8-1.6-5.9-1.6-9.2c0-4.5,0.9-8.6,2.7-12.2   c1.8-3.6,4.3-6.6,7.3-9.2c3.1-2.5,6.6-4.4,10.5-5.8c4-1.3,8-2,12.3-2c1.9,0,3.8,0.1,5.8,0.2c2,0.1,4,0.4,6,0.7s3.9,0.8,5.8,1.3   c1.9,0.5,3.7,1.2,5.4,2l-2.2,23.4c-2.6-0.9-5.3-1.6-8.2-2.2c-2.9-0.6-5.7-0.9-8.4-0.9c-0.5,0-1.1,0-1.9,0c-0.8,0-1.6,0.1-2.5,0.2   c-0.9,0.1-1.7,0.2-2.6,0.4c-0.9,0.2-1.7,0.5-2.4,0.8c-0.7,0.3-1.2,0.8-1.7,1.3c-0.4,0.5-0.6,1.2-0.6,1.9c0,0.8,0.4,1.5,1,2   s1.4,0.9,2.3,1.2s2,0.5,3.1,0.6s2.3,0.2,3.4,0.2c1.1,0,2.2,0,3.1,0c1,0,1.7,0,2.4,0.1c3.1,0.2,5.8,0.8,8.3,2   c2.5,1.1,4.5,2.6,6.3,4.4s3,4,3.9,6.6C271.8,133.7,272.2,136.5,272.2,139.6z"/>
	<path d="M71.8,192.8L42,234.5l-1.4,34H14.9l0.7-33.7L0,194.5l27.7-3.5l4.3,23.4L45.8,191L71.8,192.8z"/>
	<path d="M135.3,228c0,3.3-0.4,6.5-1.1,9.5c-0.8,3.1-1.9,5.9-3.3,8.6c-1.4,2.7-3.2,5.1-5.2,7.3c-2,2.2-4.3,4.1-6.9,5.7   c-2.5,1.6-5.3,2.8-8.3,3.7c-3,0.9-6.2,1.3-9.5,1.3c-3.3,0-6.4-0.4-9.3-1.2c-2.9-0.8-5.7-2-8.3-3.5c-2.6-1.5-4.9-3.3-7-5.4   s-3.9-4.5-5.3-7.1c-1.5-2.6-2.6-5.4-3.4-8.3c-0.8-3-1.2-6.1-1.2-9.3c0-3.1,0.4-6.2,1.1-9.2c0.8-3,1.9-5.9,3.3-8.5   c1.4-2.7,3.2-5.1,5.2-7.4c2-2.2,4.3-4.2,6.8-5.8c2.5-1.6,5.2-2.9,8.2-3.8c2.9-0.9,6-1.4,9.3-1.4c5.2,0,10,0.8,14.3,2.4   c4.3,1.6,8,4,11.1,7c3.1,3,5.4,6.7,7.1,11C134.5,217.9,135.3,222.7,135.3,228z M111.2,229.4c0-1.6-0.2-3.1-0.7-4.5   c-0.5-1.5-1.1-2.8-2-3.9s-1.9-2.1-3.2-2.8s-2.8-1.1-4.4-1.1c-1.7,0-3.2,0.3-4.6,0.9c-1.3,0.6-2.5,1.5-3.4,2.5   c-1,1.1-1.7,2.3-2.2,3.7c-0.5,1.4-0.8,2.9-0.8,4.5c0,1.5,0.2,3,0.7,4.6c0.4,1.5,1.1,2.9,2,4.1c0.9,1.2,1.9,2.2,3.2,3   c1.3,0.8,2.8,1.1,4.5,1.1s3.2-0.3,4.6-1c1.4-0.7,2.5-1.6,3.4-2.7c0.9-1.1,1.7-2.4,2.2-3.9C111,232.5,111.2,231,111.2,229.4z"/>
	<path d="M209.9,206c0,2.7-0.1,5.6-0.4,8.8c-0.3,3.2-0.7,6.5-1.2,10c-0.6,3.4-1.3,6.9-2.2,10.4c-0.9,3.5-2.1,6.9-3.4,10.2   c-1.4,3.3-3,6.3-4.8,9.1c-1.8,2.8-3.9,5.3-6.3,7.4c-2.4,2.1-5,3.8-7.9,5c-2.9,1.2-6.2,1.8-9.8,1.8c-4.2,0-7.8-0.7-10.9-2   c-3.1-1.4-5.7-3.2-7.9-5.5c-2.2-2.3-4-5-5.4-8s-2.5-6.3-3.3-9.7c-0.8-3.4-1.3-6.9-1.7-10.5c-0.3-3.6-0.5-7-0.5-10.3   c0-5.1,0.3-10.1,0.8-15.2c0.5-5,1.2-10.1,2.2-15.1l25.4,1c-1,5.7-1.8,11.4-2.5,17.1c-0.7,5.7-1.1,11.5-1.1,17.3   c0,0.6,0,1.5,0.1,2.7c0.1,1.2,0.2,2.6,0.3,4.1c0.1,1.5,0.4,3,0.6,4.6c0.3,1.6,0.6,3,1.1,4.3c0.5,1.3,1,2.4,1.7,3.2   c0.7,0.8,1.5,1.2,2.4,1.2c1,0,2-0.5,2.8-1.5c0.8-1,1.6-2.3,2.2-4c0.6-1.7,1.2-3.6,1.7-5.7c0.5-2.2,0.9-4.4,1.2-6.8   c0.3-2.4,0.6-4.7,0.8-7.1c0.2-2.4,0.4-4.5,0.5-6.6c0.1-2,0.2-3.8,0.2-5.4c0-1.6,0.1-2.7,0.1-3.5c0-2.8,0-5.6-0.1-8.4   c-0.1-2.8-0.2-5.6-0.4-8.4h25.4C209.6,195.8,209.9,200.8,209.9,206z"/>
	<path d="M256.5,248H236c-0.3-4.3,0-7.9,0.7-10.7c0.8-2.9,1.8-5.3,3.1-7.2c1.3-1.9,2.8-3.5,4.4-4.7c1.6-1.2,3.2-2.2,4.8-3.1   c1.6-0.9,2.9-1.7,4.1-2.5c1.2-0.8,2-1.8,2.5-3c0.3-0.7,0.4-1.6,0.2-2.5c-0.1-0.9-0.5-1.8-1.2-2.7c-0.7-0.8-1.8-1.6-3.1-2.1   c-1.4-0.6-3.2-0.9-5.4-0.9c-1.5,0-3.2,0.1-5.2,0.4c-2,0.3-4.1,0.7-6.3,1.2s-4.3,1.2-6.4,2s-4,1.7-5.7,2.7l-2.7-23.7   c1.5-0.9,3.2-1.8,5.1-2.8c1.9-0.9,3.9-1.8,6.2-2.5c2.3-0.7,4.7-1.4,7.4-1.8s5.5-0.7,8.6-0.7c5,0,9.7,0.7,14.1,2.1   c4.4,1.4,8.3,3.4,11.6,6.1c3.3,2.7,5.9,5.9,7.9,9.8c1.9,3.9,2.9,8.4,2.9,13.4c0,3.8-0.5,6.9-1.6,9.2c-1.1,2.3-2.5,4.2-4.2,5.7   c-1.7,1.5-3.6,2.7-5.7,3.8c-2.1,1-4.1,2.1-6.1,3.3c-2,1.2-3.8,2.7-5.5,4.4C258.7,242.7,257.4,245,256.5,248z M259.5,264   c0,1.8-0.3,3.4-1,5c-0.7,1.5-1.6,2.9-2.8,4s-2.5,2.1-4,2.7c-1.5,0.7-3.2,1-4.9,1c-1.8,0-3.4-0.3-5-1c-1.5-0.7-2.9-1.6-4-2.7   s-2.1-2.5-2.7-4c-0.7-1.5-1-3.2-1-5c0-1.7,0.3-3.4,1-5s1.6-2.9,2.7-4.1s2.5-2.1,4-2.8c1.5-0.7,3.2-1,5-1c1.7,0,3.4,0.3,4.9,1   c1.5,0.7,2.9,1.6,4,2.8s2.1,2.5,2.8,4.1C259.2,260.6,259.5,262.2,259.5,264z"/>
</g>
</svg>