{
    "asset" : {
        "generator" : "Khronos glTF Blender I/O v1.5.17",
        "version" : "2.0"
    },
    "scene" : 0,
    "scenes" : [
        {
            "name" : "Scene",
            "nodes" : [
                0
            ]
        }
    ],
    "nodes" : [
        {
            "mesh" : 0,
            "name" : "ticket-border"
        }
    ],
    "meshes" : [
        {
            "name" : "Plane",
            "primitives" : [
                {
                    "attributes" : {
                        "POSITION" : 0,
                        "NORMAL" : 1,
                        "TEXCOORD_0" : 2
                    },
                    "indices" : 3
                }
            ]
        }
    ],
    "accessors" : [
        {
            "bufferView" : 0,
            "componentType" : 5126,
            "count" : 978,
            "max" : [
                0.025000035762786865,
                0.800000011920929,
                0.5
            ],
            "min" : [
                -0.025000035762786865,
                -0.800000011920929,
                -0.5
            ],
            "type" : "VEC3"
        },
        {
            "bufferView" : 1,
            "componentType" : 5126,
            "count" : 978,
            "type" : "VEC3"
        },
        {
            "bufferView" : 2,
            "componentType" : 5126,
            "count" : 978,
            "type" : "VEC2"
        },
        {
            "bufferView" : 3,
            "componentType" : 5123,
            "count" : 1536,
            "type" : "SCALAR"
        }
    ],
    "bufferViews" : [
        {
            "buffer" : 0,
            "byteLength" : 11736,
            "byteOffset" : 0
        },
        {
            "buffer" : 0,
            "byteLength" : 11736,
            "byteOffset" : 11736
        },
        {
            "buffer" : 0,
            "byteLength" : 7824,
            "byteOffset" : 23472
        },
        {
            "buffer" : 0,
            "byteLength" : 3072,
            "byteOffset" : 31296
        }
    ],
    "buffers" : [
        {
            "byteLength" : 34368,
            "uri" : "data:application/octet-stream;base64,"
        }
    ]
}
